<svg width="48" height="48" viewBox="0 0 48 48" fill="none" xmlns="http://www.w3.org/2000/svg">
<path d="M24 0C10.746 0 0 10.9143 0 24.3758C0 35.7979 7.744 45.3552 18.184 48C18.072 47.6709 18 47.289 18 46.8157V42.6495C17.026 42.6495 15.394 42.6495 14.984 42.6495C13.342 42.6495 11.882 41.9325 11.174 40.5999C10.388 39.1191 10.252 36.8542 8.304 35.4688C7.726 35.0077 8.166 34.4816 8.832 34.5527C10.062 34.9061 11.082 35.7634 12.042 37.035C12.998 38.3086 13.448 38.597 15.234 38.597C16.1 38.597 17.396 38.5463 18.616 38.3512C19.272 36.6592 20.406 35.1011 21.792 34.3658C13.8 33.5309 9.986 29.4927 9.986 24.0102C9.986 21.6498 10.976 19.3666 12.658 17.4429C12.106 15.5335 11.412 11.6394 12.87 10.1566C16.466 10.1566 18.64 12.5251 19.162 13.165C20.954 12.5413 22.922 12.1879 24.99 12.1879C27.062 12.1879 29.038 12.5413 30.834 13.169C31.35 12.5332 33.526 10.1566 37.13 10.1566C38.594 11.6415 37.892 15.5518 37.334 17.4571C39.006 19.3767 39.99 21.6538 39.99 24.0102C39.99 29.4886 36.182 33.5248 28.202 34.3638C30.398 35.5277 32 38.7981 32 41.2621V46.8157C32 47.027 31.954 47.1794 31.93 47.3601C41.282 44.0308 48 35.0118 48 24.3758C48 10.9143 37.254 0 24 0Z" fill="black"/>
</svg>
