<svg width="44" height="45" viewBox="0 0 44 45" fill="none" xmlns="http://www.w3.org/2000/svg">
<path d="M26.8625 0.00891385C26.7571 0.0245388 26.6516 0.0557888 26.55 0.102664C25.6906 0.528445 24.7141 1.79407 24.5266 2.04407C24.5149 2.0597 24.5031 2.07532 24.4953 2.09095C23.5305 3.53626 23.0149 5.22766 22.9953 6.98938C22.9836 8.3097 23.2414 9.61829 23.7649 10.88C24.9836 13.8058 27.5149 16.2277 30.5266 17.3605C30.6281 17.3956 30.7258 17.4308 30.9016 17.4933C30.9172 17.5011 31.0656 17.548 31.0891 17.5519L31.1985 17.5909C31.3547 17.6417 31.5149 17.6925 31.6711 17.7238C32.4641 17.8839 33.2375 17.9738 33.9641 17.9972C34.0891 17.9972 34.2141 18.0011 34.3391 18.0011C39.8196 18.0011 41.9446 14.1339 42.6516 12.8449C42.7219 12.7199 42.7727 12.6183 42.8196 12.5558C42.8196 12.5519 42.8196 12.5519 42.8235 12.548C43.1321 12.0909 43.0149 11.4699 42.5578 11.1574C42.1047 10.8488 41.4836 10.9659 41.1711 11.423H41.1672C39.7063 13.5753 37.2063 14.2277 33.7414 13.3683C33.4836 13.3058 33.2024 13.2081 32.9524 13.1144C32.6242 12.9972 32.2961 12.8605 31.9914 12.712C31.386 12.4113 30.8156 12.0519 30.3 11.6534C27.2531 9.29016 26.0617 4.37219 27.843 1.53235C28.0813 1.15344 28.0383 0.661257 27.7375 0.329226C27.511 0.0792259 27.1828 -0.0340552 26.8625 0.00891385ZM18.0031 2.0011C17.7766 1.99719 17.5461 2.07141 17.3586 2.22766C15.8469 3.45813 14.3 5.47376 14.2336 5.55579C14.2258 5.57141 14.218 5.58313 14.2063 5.59876C11.4719 9.57923 11.2649 15.2433 13.6828 20.0284C14.0617 20.7863 14.4914 21.5089 14.9485 22.173L15.0852 22.3683C15.4719 22.9347 15.9055 23.5753 16.4602 24.0753C16.6516 24.2941 16.8586 24.505 17.0617 24.7081L17.1594 24.8097L17.2414 24.8917C17.4485 25.0909 17.6594 25.2941 17.8781 25.4894H17.8821C17.8977 25.5128 17.9211 25.5284 17.9406 25.548C18.1867 25.7667 18.4367 25.9738 18.7688 26.2355L18.8586 26.3019C19.1164 26.5089 19.3781 26.7042 19.6477 26.8956C19.675 26.9152 19.7024 26.9347 19.7297 26.9542C19.8235 27.0167 19.9172 27.0753 20.011 27.1417L20.1047 27.2042L20.2141 27.2745C20.4133 27.4074 20.6086 27.5284 20.886 27.6886C21.0656 27.798 21.2571 27.9074 21.3821 27.9699C21.4367 28.0011 21.4953 28.0324 21.6321 28.1066L21.9367 28.2667C21.9524 28.2745 22.0227 28.3058 22.0383 28.3136C22.2375 28.4152 22.4446 28.5128 22.6516 28.6066L22.968 28.7472C23.175 28.837 23.386 28.923 23.6438 29.0206L23.761 29.0636C23.7688 29.0714 23.8664 29.1066 23.8742 29.1105C24.0617 29.1769 24.2531 29.2433 24.4446 29.3058L24.8821 29.4503C25.1008 29.5245 25.3547 29.6105 25.6321 29.6574C26.9953 29.8839 28.3196 30.0011 29.5735 30.0011C29.7219 30.0011 29.8703 29.9972 30.0149 29.9972C41.0539 29.755 43.925 20.3761 43.9524 20.2824C44.0891 19.8097 43.8664 19.3058 43.4211 19.0949C42.9758 18.8839 42.4446 19.0324 42.1672 19.4386C39.3703 23.5245 34.0813 25.2511 28.6946 23.8292C28.4446 23.7667 28.2024 23.6964 27.9016 23.5988C27.8508 23.5831 27.8078 23.5675 27.7258 23.5363C27.55 23.4816 27.3781 23.423 27.1828 23.3488L26.9055 23.2433C26.7453 23.1808 26.5852 23.1183 26.3899 23.0324L26.261 22.9738C26.0227 22.8722 25.7922 22.7589 25.5852 22.6574L25.0149 22.3605C24.886 22.298 24.7727 22.2277 24.5969 22.1222L24.4992 22.0675L24.4016 22.0089C24.2571 21.923 24.1125 21.8331 23.9797 21.7394L23.886 21.6808C23.8781 21.6769 23.8 21.6222 23.7922 21.6144C23.675 21.5402 23.5617 21.4659 23.4524 21.3956C23.2102 21.2238 22.9719 21.0441 22.6946 20.8253L22.5852 20.7355C20.0071 18.6769 18.1008 15.9269 17.2063 12.9777C16.3742 10.2706 16.9914 6.72766 18.8586 3.5011C19.1008 3.08313 19.011 2.55188 18.6399 2.23938C18.4563 2.08313 18.2297 2.0011 18.0031 2.0011ZM6.99924 5.0011C6.76096 5.0011 6.51877 5.08704 6.32737 5.25891C4.41721 6.97376 2.98752 9.19641 2.83127 9.45032C-1.25466 15.3995 -0.465601 24.6456 2.33909 30.298C2.39377 30.4152 2.45237 30.5284 2.51096 30.6417L2.55002 30.7042C2.60081 30.8175 2.6594 30.9347 2.67893 30.9581C2.71018 31.0324 2.75706 31.1144 2.77659 31.1378C2.82346 31.2355 2.87034 31.3214 2.95627 31.4699L3.27659 32.0206C3.32346 32.0949 3.37034 32.173 3.38596 32.2003C3.44846 32.3019 3.51487 32.4074 3.58127 32.5128L3.73752 32.7628C3.7844 32.837 3.83127 32.9034 3.86252 32.9425C4.01877 33.1847 4.17502 33.4269 4.3469 33.6574C4.35471 33.6691 4.36252 33.6769 4.37034 33.6847L4.43284 33.7706C4.57346 33.9738 4.71799 34.1691 4.8469 34.3292L5.41721 35.0519C5.42502 35.0597 5.48752 35.1339 5.49143 35.1417L5.57346 35.2355C5.74534 35.4464 5.92893 35.6574 6.11252 35.8605C6.13987 35.8917 6.16721 35.9191 6.19455 35.9503C6.37034 36.1417 6.55002 36.3331 6.73752 36.5324L6.91721 36.7042C7.06565 36.8605 7.21409 37.0128 7.37034 37.1574C7.37034 37.1613 7.44455 37.2316 7.44455 37.2316L7.6008 37.3761C7.7883 37.5558 7.98362 37.7355 8.13205 37.8605C8.13987 37.8722 8.28049 37.9933 8.29221 38.0011C8.4758 38.1652 8.6594 38.3214 8.8469 38.4738L9.80393 39.2316C9.96409 39.3488 10.1281 39.4659 10.3156 39.6027C10.3781 39.6495 10.4446 39.6964 10.511 39.7394C10.5383 39.7628 10.5696 39.7863 10.5891 39.798L11.3078 40.2784C11.5696 40.4503 11.8313 40.6105 12.1516 40.8019L12.3235 40.8995C12.5227 41.0167 12.7258 41.1339 12.9172 41.2355C13.0305 41.298 13.1438 41.3527 13.2414 41.4034C13.3781 41.4777 13.5266 41.5597 13.7531 41.6691C13.7727 41.6808 13.9328 41.7589 13.9524 41.7667C14.1789 41.88 14.4094 41.9855 14.6985 42.1144C14.6985 42.1183 14.7922 42.1613 14.7922 42.1613C15.0578 42.2745 15.3156 42.3839 15.6555 42.5206C15.7102 42.5441 15.7649 42.5636 15.7766 42.5675C16.0188 42.6613 16.2727 42.755 16.4797 42.8292C16.4992 42.837 16.6047 42.88 16.6242 42.8878C16.9016 42.9816 17.175 43.0714 17.5266 43.1808C17.5852 43.2003 17.6477 43.2199 17.6555 43.2199L17.8547 43.2824C18.0969 43.3566 18.3391 43.4347 18.6008 43.4855C20.4602 43.8253 22.2766 44.0011 23.9953 44.0011H23.9992C38.3235 44.0011 42.886 32.4738 42.9328 32.3566C43.1086 31.8917 42.9172 31.3683 42.4797 31.1261C42.05 30.8878 41.5031 31.0011 41.1985 31.3956C37.5227 36.2355 30.5891 38.0324 22.6516 36.2081C22.4602 36.1613 22.2649 36.1066 22.0735 36.048L21.6985 35.9347C21.4446 35.8566 21.1906 35.7706 20.9446 35.6847C20.9406 35.6847 20.8274 35.6417 20.8274 35.6417C20.6086 35.5675 20.3899 35.4816 20.1985 35.4074L19.9797 35.3214C19.7375 35.2238 19.4953 35.1222 19.261 35.0167L19.1242 34.9581C18.9133 34.8605 18.7102 34.7667 18.5071 34.6652C18.4914 34.6574 18.3313 34.5792 18.3156 34.5753C18.175 34.505 18.0344 34.4308 17.8547 34.3331L17.0383 33.8956C16.9563 33.8409 16.8703 33.7902 16.7883 33.7472C16.5422 33.5949 16.2883 33.4425 16.0383 33.2824C15.9797 33.2472 15.9289 33.2081 15.8313 33.1417C15.6594 33.0324 15.4914 32.9191 15.2453 32.7472L15.1477 32.6769C14.9797 32.5597 14.8156 32.4347 14.6789 32.3331C14.593 32.2706 14.5071 32.2003 14.3664 32.0949C14.2414 31.9972 14.1164 31.9034 13.9992 31.8097L13.7805 31.63C13.5969 31.4816 13.425 31.3253 13.2453 31.173C13.2219 31.1495 13.2024 31.1339 13.175 31.1144C12.9758 30.9308 12.7727 30.7472 12.5305 30.5167L11.8235 29.8136C11.6516 29.6378 11.4797 29.4581 11.2844 29.2433C11.1047 29.0441 10.9328 28.8449 10.7024 28.5714L10.2805 28.0558C10.2297 27.9816 10.175 27.9074 10.1086 27.8292C9.96409 27.6339 9.81956 27.4425 9.67502 27.2394C5.7844 21.88 4.76877 10.6925 7.80002 6.59485C8.10471 6.1847 8.05002 5.60657 7.66721 5.25891C7.47971 5.08704 7.23752 5.0011 6.99924 5.0011Z" fill="black"/>
</svg>
