<svg width="48" height="48" viewBox="0 0 48 48" fill="none" xmlns="http://www.w3.org/2000/svg">
<path d="M43.982 23.635C44.051 19.374 43.091 14.307 41.091 8.36195L39.523 3.69995L37.393 8.13295C37.279 8.36995 37.149 8.60195 37.013 8.83095C33.514 5.82695 28.974 3.99995 24 3.99995C12.954 3.99995 4 12.954 4 24C4 35.0459 12.954 44 24 44C35.046 44 44 35.0459 44 24C44 23.877 43.984 23.7579 43.982 23.635Z" fill="#8BC34A"/>
<path d="M39.3848 32.558C36.2618 36.86 30.7338 37.091 25.5308 37H18.7498H16.8118C21.2398 35.407 23.8748 35.028 26.5658 33.6C31.6338 30.935 36.6438 25.104 37.6868 19.038C35.7568 24.874 29.9078 29.888 24.5778 31.927C20.9258 33.32 14.3298 34.672 14.3298 34.672L14.0628 34.527C9.57282 32.268 9.43683 22.214 17.5998 18.968C21.1738 17.545 24.5928 18.327 28.4538 17.375C32.5758 16.363 37.3438 13.167 39.2838 9C41.4558 15.667 44.0698 26.106 39.3848 32.558ZM15.6678 38.445C15.3858 38.795 14.9548 39 14.5048 39C13.6818 39 13.0098 38.323 13.0098 37.5C13.0098 36.677 13.6868 36 14.5048 36C14.8458 36 15.1818 36.118 15.4458 36.336C16.0858 36.855 16.1858 37.805 15.6678 38.445Z" fill="white"/>
</svg>
